<svg width="2000" height="419" viewBox="0 0 2000 419" fill="none" xmlns="http://www.w3.org/2000/svg">
<path d="M1577.64 129.764H1981.1C1991.34 129.764 1999.69 138.11 1999.69 148.347V259.528C1999.69 264.409 1997.8 269.134 1994.33 272.598C1990.87 276.063 1986.14 277.953 1981.26 277.953H1577.8C1572.91 277.953 1568.19 276.063 1564.72 272.598C1561.26 269.134 1559.37 264.409 1559.37 259.528V148.347C1559.37 143.465 1561.26 138.74 1564.72 135.276C1568.03 131.654 1572.76 129.764 1577.64 129.764Z" fill="#EAD637"/>
<path d="M1638.36 161.615H1584.82V235.473H1638.36C1657.42 235.473 1674.27 223.662 1674.27 198.465C1674.27 173.426 1657.42 161.615 1638.36 161.615ZM1631.12 219.567H1603.72V177.52H1631.12C1645.45 177.52 1655.21 180.512 1655.21 198.465C1655.21 216.418 1645.45 219.567 1631.12 219.567Z" fill="#0E1C36"/>
<path d="M1727.58 236.575C1760.02 236.575 1774.04 223.032 1774.04 198.465C1774.04 174.056 1760.02 160.512 1727.58 160.512C1695.14 160.512 1681.13 173.898 1681.13 198.465C1681.13 223.032 1695.14 236.575 1727.58 236.575ZM1727.58 220.512C1707.9 220.512 1700.18 213.583 1700.18 198.308C1700.18 183.189 1707.74 176.418 1727.58 176.418C1747.43 176.418 1754.99 183.347 1754.99 198.308C1754.99 213.426 1747.43 220.512 1727.58 220.512Z" fill="#0E1C36"/>
<path d="M1781.06 198.465C1781.06 223.032 1794.92 236.575 1827.52 236.575C1856.97 236.575 1871.77 225.237 1873.66 203.819H1854.29C1852.56 215.788 1843.27 220.67 1827.52 220.67C1808.31 220.67 1800.12 213.741 1800.12 198.465C1800.12 183.347 1808.31 176.575 1827.52 176.575C1843.42 176.575 1852.56 181.142 1854.29 193.111H1873.66C1871.61 171.693 1856.97 160.512 1827.52 160.512C1794.92 160.512 1781.06 173.898 1781.06 198.465Z" fill="#0E1C36"/>
<path d="M1880.59 209.961C1880.59 231.221 1898.7 236.418 1928.93 236.418C1956.34 236.418 1974.92 232.481 1974.92 212.638C1974.92 193.898 1956.81 192.323 1927.67 190.748C1906.1 189.489 1901.69 188.386 1901.69 182.717C1901.69 177.205 1906.1 175.473 1924.84 175.473C1944.53 175.473 1952.71 177.52 1952.71 185.552H1971.77C1971.77 167.284 1954.92 160.355 1927.04 160.355C1899.33 160.355 1882.79 165.552 1882.79 181.772C1882.79 198.308 1895.55 203.347 1927.67 204.922C1951.61 206.024 1955.86 207.126 1955.86 213.268C1955.86 219.095 1949.88 221.3 1929.88 221.3C1905.78 221.3 1899.49 217.678 1899.49 209.961H1880.59Z" fill="#0E1C36"/>
<path d="M545.512 282.677V40.4725C545.512 19.8425 528.819 3.1496 508.189 3.1496H37.6378C17.0079 3.1496 0.314941 19.8425 0.314941 40.4725V380.315C0.314941 400.945 17.0079 417.638 37.6378 417.638H250.709H301.89H300.157C301.732 417.638 303.15 416.378 303.15 414.803V362.677C303.15 361.102 301.89 359.843 300.157 359.843H299.213H250.709H87.7165C71.496 359.843 58.2677 347.874 58.2677 332.913V88.0315C58.2677 73.2283 71.496 61.1023 87.7165 61.1023H458.268C474.488 61.1023 487.717 73.0709 487.717 88.0315V282.835V331.024V334.961C487.717 336.535 488.976 337.795 490.551 337.795H542.677C544.252 337.795 545.669 336.535 545.669 334.961L545.512 282.677Z" fill="white"/>
<path d="M542.677 359.843H490.551C488.976 359.843 487.717 361.102 487.717 362.677V414.803C487.717 416.378 488.976 417.638 490.551 417.638H542.677C544.252 417.638 545.669 416.378 545.669 414.803V362.677C545.512 361.102 544.252 359.843 542.677 359.843Z" fill="#EAD63C"/>
<path d="M462.677 359.843H410.551C408.976 359.843 407.717 361.102 407.717 362.677V414.803C407.717 416.378 408.976 417.638 410.551 417.638H462.677C464.252 417.638 465.669 416.378 465.669 414.803V362.677C465.669 361.102 464.409 359.843 462.677 359.843Z" fill="#EAD63C"/>
<path d="M382.835 359.843H330.709C329.134 359.843 327.874 361.102 327.874 362.677V414.803C327.874 416.378 329.134 417.638 330.709 417.638H382.835C384.409 417.638 385.827 416.378 385.827 414.803V362.677C385.827 361.102 384.409 359.843 382.835 359.843Z" fill="#EAD63C"/>
<path d="M862.362 174.331H798.898V93.0709L752.283 174.331H710.866L664.252 93.0709V174.331H600.787V3.62201H678.898L731.653 101.26L784.409 3.62201H862.52L862.362 174.331Z" fill="white"/>
<path d="M867.244 88.8189C867.244 29.6063 899.528 1.25983 974.646 1.25983C1049.61 1.25983 1082.05 29.7638 1082.05 88.8189C1082.05 148.031 1049.61 176.85 974.646 176.85C899.37 176.85 867.244 148.346 867.244 88.8189ZM1018.43 88.8189C1018.43 71.0236 1012.13 54.9606 974.488 54.9606C936.85 54.9606 930.709 70.7087 930.709 88.8189C930.709 107.087 937.323 123.15 974.646 123.15C1011.81 123.15 1018.43 106.772 1018.43 88.8189Z" fill="white"/>
<path d="M1258.43 125.354L1288.66 174.331H1213.54L1189.92 134.331H1152.6V174.331H1089.13V3.62201H1223.31C1262.05 3.62201 1288.66 31.0236 1288.66 68.9763C1288.66 93.8582 1277.32 114.331 1258.43 125.354ZM1152.6 80.6299H1211.18C1217.48 80.6299 1225.35 80.6299 1225.35 68.9763C1225.35 57.3228 1217.48 57.3228 1211.18 57.3228H1152.6V80.6299Z" fill="white"/>
<path d="M1359.53 52.4409V68.3464H1476.69V109.764H1359.53V125.669H1476.69V174.488H1296.06V3.62201H1476.54V52.4409H1359.53Z" fill="white"/>
<path d="M836.063 414.488H743.937L676.693 322.52V414.488H601.89V230.394H694.016L761.26 322.362V230.394H836.063V414.488ZM749.134 404.252H825.827V240.63H771.496V353.858L688.661 240.63H611.968V404.252H666.299V291.024L749.134 404.252Z" fill="#EAD63C"/>
<path d="M933.386 414.488H858.583V230.394H1052.6V295.276H933.386V303.622H1037.8V368.504H933.543V414.488H933.386ZM868.819 404.252H923.15V358.268H1027.4V313.858H923.15V285.039H1042.36V240.63H868.819V404.252Z" fill="#EAD63C"/>
<path d="M1219.53 414.488H1144.72V295.276H1070.24V230.394H1294.17V295.276H1219.69V414.488H1219.53ZM1154.96 404.252H1209.29V285.039H1283.78V240.63H1080.47V285.039H1154.96V404.252Z" fill="#EAD63C"/>
</svg>
