<svg width="3934" height="591" viewBox="0 0 3934 591" fill="none" xmlns="http://www.w3.org/2000/svg">
<g clip-path="url(#clip0_3_87)">
<path d="M1092.38 399.418V55.7938C1092.38 26.5435 1066.68 2.81464 1035.01 2.81464H311.97C280.276 2.81464 254.576 26.5435 254.576 55.7938V538.048C254.576 567.284 280.276 591 311.97 591H639.427H718.1H715.504C717.984 591 719.982 589.141 719.982 586.892V512.878C719.982 510.602 717.998 508.77 715.504 508.77H714.016H639.427H388.85C363.894 508.77 343.649 491.694 343.649 470.632V123.223C343.649 102.134 363.879 85.0711 388.85 85.0711H958.147C983.132 85.0711 1003.33 102.134 1003.33 123.223V399.539V467.938V473.554C1003.33 475.803 1005.33 477.662 1007.8 477.662H1087.93C1090.42 477.662 1092.42 475.803 1092.42 473.554V399.539C1092.41 399.499 1092.38 399.459 1092.38 399.418Z" fill="white"/>
<path d="M1087.91 508.77H1007.78C1005.32 508.77 1003.32 510.602 1003.32 512.878V586.893C1003.32 589.142 1005.32 591 1007.78 591H1087.91C1090.39 591 1092.41 589.142 1092.41 586.893V512.878C1092.41 510.602 1090.39 508.77 1087.91 508.77Z" fill="#EAD63C"/>
<path d="M965.133 508.77H885.001C882.536 508.77 880.538 510.602 880.538 512.878V586.893C880.538 589.142 882.536 591 885.001 591H965.133C967.627 591 969.626 589.142 969.626 586.893V512.878C969.626 510.602 967.627 508.77 965.133 508.77Z" fill="#EAD63C"/>
<path d="M842.368 508.77H762.206C759.756 508.77 757.772 510.602 757.772 512.878V586.893C757.772 589.142 759.756 591 762.206 591H842.368C844.833 591 846.845 589.142 846.845 586.893V512.878C846.845 510.602 844.833 508.77 842.368 508.77Z" fill="#EAD63C"/>
<path d="M1579.18 245.746H1481.72V130.495L1410.12 245.746H1346.4L1274.8 130.495V245.746H1177.34V3.46106H1297.29L1378.25 141.902L1459.21 3.46106H1579.16V245.746H1579.18Z" fill="white"/>
<path d="M1586.66 124.26C1586.66 40.1585 1636.15 0 1751.59 0C1866.67 0 1916.52 40.4952 1916.52 124.26C1916.52 208.362 1866.67 249.207 1751.59 249.207C1636.13 249.207 1586.66 208.698 1586.66 124.26ZM1819.06 124.26C1819.06 98.996 1809.32 76.1425 1751.59 76.1425C1693.86 76.1425 1684.12 98.6458 1684.12 124.26C1684.12 150.211 1694.24 173.065 1751.59 173.065C1808.94 173.065 1819.06 149.874 1819.06 124.26Z" fill="white"/>
<path d="M2187.9 176.175L2234.38 245.746H2118.93L2082.57 188.983H2025.22V245.746H1927.76V3.461H2133.92C2193.53 3.461 2234.38 42.2325 2234.38 96.2218C2234.38 131.519 2216.77 160.594 2187.9 176.175ZM2025.22 112.827H2115.18C2124.92 112.827 2136.92 112.827 2136.92 96.2083C2136.92 79.59 2124.94 79.5901 2115.18 79.5901H2025.22V112.827Z" fill="white"/>
<path d="M2343.07 72.6816V95.1849H2523V154.022H2343.07V176.512H2523V245.733H2245.6V3.461H2523V72.6816H2343.07Z" fill="white"/>
<path d="M1538.86 586.395H1397.18L1293.83 455.899V586.395H1178.78V325.121H1320.46L1423.82 455.616V325.121H1538.86V586.395V586.395ZM1405.2 571.796H1523.05V339.719H1439.63V500.313L1312.44 339.719H1194.59V571.796H1278.02V411.202L1405.2 571.796Z" fill="#EAD63C"/>
<path d="M1688.44 586.395H1573.4V325.121H1871.65V417.249H1688.44V429.086H1848.73V521.214H1688.44V586.395V586.395ZM1589.21 571.796H1672.63V506.602H1832.92V443.671H1672.63V402.637H1855.83V339.706H1589.21V571.796Z" fill="#EAD63C"/>
<path d="M2128.1 586.395H2013.05V417.235H1898.56V325.107H2242.6V417.235H2128.1V586.395ZM2028.86 571.796H2112.29V402.637H2226.79V339.706H1914.37V402.637H2028.86V571.796V571.796Z" fill="#EAD63C"/>
<path d="M2644.49 3H3830.51C3860.6 3 3885 35.9155 3885 76.5024V517.498C3885 536.997 3879.26 555.704 3869.03 569.478C3858.82 583.253 3844.96 591 3830.51 591H2644.49C2630.04 591 2616.18 583.253 2605.95 569.478C2595.74 555.704 2590 536.997 2590 517.498V76.5024C2590 57.0214 2595.74 38.3151 2605.95 24.5405C2616.18 10.747 2630.04 3 2644.49 3Z" fill="#EAD637"/>
<path d="M2844.58 69H2705V519H2844.58C2894.31 519 2938 447.003 2938 293.985C2938 140.997 2894.31 69 2844.58 69ZM2825.9 421.931H2754.45V166.069H2825.9C2863.27 166.069 2888.55 184.699 2888.55 293.985C2888.55 403.272 2863.27 421.931 2825.9 421.931Z" fill="#0E1C36"/>
<path d="M3106.49 519C3188.48 519 3224 438.372 3224 293.365C3224 149.008 3188.48 69 3106.49 69C3024.25 69 2989 148.387 2989 293.365C2989 438.992 3024.25 519 3106.49 519ZM3106.49 424.605C3056.56 424.605 3037.07 383.36 3037.07 293.365C3037.07 203.992 3056.3 163.367 3106.49 163.367C3156.7 163.367 3175.93 204.64 3175.93 293.365C3175.93 382.739 3156.44 424.605 3106.49 424.605Z" fill="#0E1C36"/>
<path d="M3275 293.365C3275 438.992 3310.37 519 3392.9 519C3467.66 519 3505.17 452.111 3510 325.244H3460.96C3456.41 396.506 3432.83 424.605 3392.9 424.605C3344.14 424.605 3323.24 383.36 3323.24 293.365C3323.24 203.992 3343.86 163.367 3392.9 163.367C3433.09 163.367 3456.41 190.873 3460.96 261.515H3510C3505.17 135.269 3467.66 69 3392.9 69C3310.37 69 3275 148.387 3275 293.365Z" fill="#0E1C36"/>
<path d="M3561 365.116C3561 491.362 3605.95 522 3681.39 522C3749.47 522 3796 498.246 3796 381.366C3796 270.749 3751.05 261.383 3678.49 251.989C3624.87 244.513 3613.84 238.25 3613.84 204.509C3613.84 172.009 3624.87 161.374 3671.4 161.374C3720.56 161.374 3740.8 173.251 3740.8 221.379H3788.11C3788.11 113.245 3746.06 72 3676.65 72C3607.79 72 3566.52 102.638 3566.52 198.867C3566.52 296.986 3598.33 327.003 3678.49 335.748C3738.17 342.632 3748.68 348.867 3748.68 385.118C3748.68 419.48 3733.71 432.626 3684.02 432.626C3624.09 432.626 3608.32 411.355 3608.32 365.116H3561Z" fill="#0E1C36"/>
</g>
<defs>
<clipPath id="clip0_3_87">
<rect width="3934" height="591" fill="white"/>
</clipPath>
</defs>
</svg>
