<svg width="91" height="25" viewBox="0 0 91 25" fill="none" xmlns="http://www.w3.org/2000/svg">
<g id="Group">
<g id="Group_2">
<g id="Group_3">
<g id="Group_4">
<g id="Group_5">
<path id="Vector" d="M33.6092 16.8959V2.36022C33.6092 1.1229 32.5782 0.119141 31.3079 0.119141H2.3024C1.03096 0.119141 0 1.1229 0 2.36022V22.7601C0 23.9969 1.03096 25.0001 2.3024 25.0001H15.4386H18.5947H18.4906C18.59 25.0001 18.6702 24.9215 18.6702 24.8263V21.6954C18.6702 21.5991 18.5906 21.5217 18.4906 21.5217H18.4309H15.4386H5.3865C4.38538 21.5217 3.57325 20.7993 3.57325 19.9084V5.21257C3.57325 4.32046 4.38479 3.59869 5.3865 3.59869H28.2244C29.2267 3.59869 30.0371 4.32046 30.0371 5.21257V16.9011V19.7944V20.032C30.0371 20.1271 30.1172 20.2057 30.2161 20.2057H33.4307C33.5308 20.2057 33.6109 20.1271 33.6109 20.032V16.9011C33.6103 16.8994 33.6092 16.8977 33.6092 16.8959Z" fill="black"/>
</g>
<g id="Group_6">
<path id="Vector_2" d="M33.4301 21.5216H30.2155C30.1167 21.5216 30.0365 21.5991 30.0365 21.6954V24.8263C30.0365 24.9214 30.1167 25 30.2155 25H33.4301C33.5296 25 33.6103 24.9214 33.6103 24.8263V21.6954C33.6103 21.5991 33.5296 21.5216 33.4301 21.5216Z" fill="#E7CE15"/>
</g>
<g id="Group_7">
<path id="Vector_3" d="M28.5047 21.5216H25.2901C25.1912 21.5216 25.1111 21.5991 25.1111 21.6954V24.8263C25.1111 24.9214 25.1912 25 25.2901 25H28.5047C28.6047 25 28.6849 24.9214 28.6849 24.8263V21.6954C28.6849 21.5991 28.6047 21.5216 28.5047 21.5216Z" fill="#E7CE15"/>
</g>
<g id="Group_8">
<path id="Vector_4" d="M23.5798 21.5216H20.3641C20.2658 21.5216 20.1862 21.5991 20.1862 21.6954V24.8263C20.1862 24.9214 20.2658 25 20.3641 25H23.5798C23.6787 25 23.7595 24.9214 23.7595 24.8263V21.6954C23.7595 21.5991 23.6787 21.5216 23.5798 21.5216Z" fill="#E7CE15"/>
</g>
</g>
</g>
</g>
<g id="Group_9">
<g id="Group_10">
<path id="Vector_5" d="M53.1377 10.3953H49.228V5.52006L46.3557 10.3953H43.7994L40.9271 5.52006V10.3953H37.0174V0.146362H41.8293L45.0773 6.00258L48.3252 0.146362H53.1371V10.3953H53.1377Z" fill="black"/>
</g>
<g id="Group_11">
<path id="Vector_6" d="M53.4379 5.25635C53.4379 1.69875 55.4231 0 60.0543 0C64.6708 0 66.6707 1.71299 66.6707 5.25635C66.6707 8.81394 64.6708 10.5418 60.0543 10.5418C55.4226 10.5418 53.4379 8.82818 53.4379 5.25635ZM62.761 5.25635C62.761 4.18764 62.3701 3.22091 60.0543 3.22091C57.7384 3.22091 57.3476 4.17283 57.3476 5.25635C57.3476 6.3541 57.7536 7.32083 60.0543 7.32083C62.3549 7.32083 62.761 6.33986 62.761 5.25635Z" fill="black"/>
</g>
<g id="Group_12">
<path id="Vector_7" d="M77.5572 7.45239L79.4219 10.3953H74.7902L73.3315 7.99415H71.0309V10.3953H67.1212V0.146362H75.3917C77.783 0.146362 79.4219 1.78644 79.4219 4.07026C79.4219 5.56336 78.7151 6.79328 77.5572 7.45239ZM71.0309 4.77266H74.6398C75.0307 4.77266 75.5122 4.77266 75.5122 4.06969C75.5122 3.36671 75.0312 3.36671 74.6398 3.36671H71.0309V4.77266Z" fill="black"/>
</g>
<g id="Group_13">
<path id="Vector_8" d="M83.7821 3.07447V4.02639H91V6.51529H83.7821V7.46663H91V10.3947H79.8718V0.146362H91V3.07447H83.7821Z" fill="black"/>
</g>
<g id="Group_14">
<path id="Vector_9" d="M51.5205 24.8051H45.8367L41.6907 19.285V24.8051H37.0753V13.7529H42.7591L46.9051 19.273V13.7529H51.5205V24.8051V24.8051ZM46.1585 24.1876H50.8862V14.3705H47.5394V21.1638L42.4373 14.3705H37.7096V24.1876H41.0564V17.3943L46.1585 24.1876Z" fill="#E7CE15"/>
</g>
<g id="Group_15">
<path id="Vector_10" d="M57.5207 24.8051H52.906V13.7529H64.8703V17.65H57.5207V18.1508H63.9511V22.0479H57.5207V24.8051V24.8051ZM53.5403 24.1876H56.8865V21.4298H63.3168V18.7677H56.8865V17.032H64.236V14.3699H53.5403V24.1876Z" fill="#E7CE15"/>
</g>
<g id="Group_16">
<path id="Vector_11" d="M75.1582 24.8052H70.5429V17.6496H65.9498V13.7524H79.7513V17.6496H75.1582V24.8052ZM71.1771 24.1877H74.524V17.032H79.1171V14.37H66.5841V17.032H71.1771V24.1877V24.1877Z" fill="#E7CE15"/>
</g>
</g>
</g>
</svg>
