<svg width="2710" height="591" viewBox="0 0 2710 591" fill="none" xmlns="http://www.w3.org/2000/svg">
<path d="M625.378 399.418V55.7938C625.378 26.5435 606.194 2.81464 582.554 2.81464H42.8417C19.1837 2.81464 0 26.5435 0 55.7938V538.048C0 567.284 19.1837 591 42.8417 591H287.272H345.997H344.059C345.91 591 347.402 589.141 347.402 586.892V512.878C347.402 510.602 345.921 508.77 344.059 508.77H342.949H287.272H100.229C81.6003 508.77 66.4884 491.694 66.4884 470.632V123.223C66.4884 102.134 81.5891 85.0711 100.229 85.0711H525.18C543.83 85.0711 558.907 102.134 558.907 123.223V399.539V467.938V473.554C558.907 475.803 560.4 477.662 562.243 477.662H622.056C623.915 477.662 625.408 475.803 625.408 473.554V399.539C625.4 399.499 625.378 399.459 625.378 399.418Z" fill="white"/>
<path d="M622.042 508.77H562.229C560.392 508.77 558.899 510.602 558.899 512.878V586.893C558.899 589.142 560.392 591 562.229 591H622.042C623.893 591 625.401 589.142 625.401 586.893V512.878C625.401 510.602 623.893 508.77 622.042 508.77Z" fill="#EAD63C"/>
<path d="M530.395 508.77H470.58C468.74 508.77 467.249 510.602 467.249 512.878V586.893C467.249 589.142 468.74 591 470.58 591H530.395C532.256 591 533.748 589.142 533.748 586.893V512.878C533.748 510.602 532.256 508.77 530.395 508.77Z" fill="#EAD63C"/>
<path d="M438.757 508.77H378.92C377.091 508.77 375.61 510.602 375.61 512.878V586.893C375.61 589.142 377.091 591 378.92 591H438.757C440.597 591 442.098 589.142 442.098 586.893V512.878C442.098 510.602 440.597 508.77 438.757 508.77Z" fill="#EAD63C"/>
<path d="M988.749 245.746H916V130.495L862.555 245.746H814.991L761.545 130.495V245.746H688.796V3.46106H778.333L838.765 141.902L899.198 3.46106H988.735V245.746H988.749Z" fill="white"/>
<path d="M994.333 124.26C994.333 40.1585 1031.27 0 1117.44 0C1203.35 0 1240.56 40.4952 1240.56 124.26C1240.56 208.362 1203.35 249.207 1117.44 249.207C1031.26 249.207 994.333 208.698 994.333 124.26ZM1167.81 124.26C1167.81 98.996 1160.54 76.1425 1117.44 76.1425C1074.35 76.1425 1067.08 98.6458 1067.08 124.26C1067.08 150.211 1074.64 173.065 1117.44 173.065C1160.25 173.065 1167.81 149.874 1167.81 124.26Z" fill="white"/>
<path d="M1443.13 176.175L1477.82 245.746H1391.65L1364.5 188.983H1321.7V245.746H1248.95V3.461H1402.83C1447.33 3.461 1477.82 42.2325 1477.82 96.2218C1477.82 131.519 1464.68 160.594 1443.13 176.175ZM1321.7 112.827H1388.85C1396.12 112.827 1405.07 112.827 1405.07 96.2083C1405.07 79.59 1396.13 79.5901 1388.85 79.5901H1321.7V112.827Z" fill="white"/>
<path d="M1558.95 72.6816V95.1849H1693.26V154.022H1558.95V176.512H1693.26V245.733H1486.2V3.461H1693.26V72.6816H1558.95Z" fill="white"/>
<path d="M958.653 586.395H852.896L775.75 455.899V586.395H689.871V325.121H795.628L872.781 455.616V325.121H958.653V586.395ZM858.882 571.796H946.851V339.719H884.582V500.313L789.642 339.719H701.673V571.796H763.949V411.202L858.882 571.796Z" fill="#EAD63C"/>
<path d="M1070.31 586.395H984.435V325.121H1207.06V417.249H1070.31V429.086H1189.95V521.214H1070.31V586.395ZM996.236 571.796H1058.51V506.602H1178.15V443.671H1058.51V402.637H1195.25V339.706H996.236V571.796Z" fill="#EAD63C"/>
<path d="M1398.49 586.395H1312.61V417.235H1227.15V325.107H1483.96V417.235H1398.49V586.395ZM1324.41 571.796H1386.69V402.637H1472.16V339.706H1238.95V402.637H1324.41V571.796Z" fill="#EAD63C"/>
<path d="M1783.65 91H2669.31C2691.78 91 2710 114.399 2710 143.252V456.749C2710 470.61 2705.71 483.909 2698.07 493.7C2690.45 503.493 2680.1 509 2669.31 509H1783.65C1772.85 509 1762.5 503.493 1754.87 493.7C1747.24 483.909 1742.95 470.61 1742.95 456.749V143.252C1742.95 129.403 1747.24 116.105 1754.87 106.313C1762.5 96.5072 1772.85 91 1783.65 91Z" fill="#EAD637"/>
<path d="M1933.22 156H1828.93V444H1933.22C1970.37 444 2003.01 397.922 2003.01 299.99C2003.01 202.078 1970.37 156 1933.22 156ZM1919.26 381.876H1865.88V218.124H1919.26C1947.18 218.124 1966.07 230.047 1966.07 299.99C1966.07 369.934 1947.18 381.876 1919.26 381.876Z" fill="#0E1C36"/>
<path d="M2128.06 444C2189.04 444 2215.46 392.398 2215.46 299.594C2215.46 207.205 2189.04 156 2128.06 156C2066.89 156 2040.67 206.808 2040.67 299.594C2040.67 392.795 2066.89 444 2128.06 444ZM2128.06 383.587C2090.92 383.587 2076.43 357.19 2076.43 299.594C2076.43 242.395 2090.73 216.395 2128.06 216.395C2165.41 216.395 2179.71 242.81 2179.71 299.594C2179.71 356.793 2165.21 383.587 2128.06 383.587Z" fill="#0E1C36"/>
<path d="M2253.12 299.594C2253.12 392.795 2279.54 444 2341.17 444C2397.01 444 2425.02 401.191 2428.63 319.996H2392C2388.6 365.604 2370.99 383.587 2341.17 383.587C2304.76 383.587 2289.15 357.19 2289.15 299.594C2289.15 242.395 2304.55 216.395 2341.17 216.395C2371.19 216.395 2388.6 233.999 2392 279.21H2428.63C2425.02 198.412 2397.01 156 2341.17 156C2279.54 156 2253.12 206.808 2253.12 299.594Z" fill="#0E1C36"/>
<path d="M2465.57 343.594C2465.57 424.392 2499.01 444 2555.12 444C2605.76 444 2640.37 428.797 2640.37 353.994C2640.37 283.199 2606.93 277.205 2552.96 271.193C2513.08 266.408 2504.88 262.4 2504.88 240.806C2504.88 220.006 2513.08 213.199 2547.69 213.199C2584.26 213.199 2599.31 220.801 2599.31 251.603H2634.5C2634.5 182.397 2603.22 156 2551.59 156C2500.38 156 2469.68 175.608 2469.68 237.195C2469.68 299.991 2493.34 319.202 2552.96 324.799C2597.35 329.204 2605.17 333.195 2605.17 356.396C2605.17 378.387 2594.04 386.801 2557.08 386.801C2512.5 386.801 2500.77 373.187 2500.77 343.594H2465.57Z" fill="#0E1C36"/>
</svg>
